REM DIRINDEX 1\2,1\3,1\4,1\5
REM DIRNAME "folder01","folder02","folder03","folder04","folder05"
TITLE ""
FILE "DISC1Track05.mp3" MP3
  TRACK 01 AUDIO
    TITLE "2:cjc158_0168"
    INDEX 01 00:00:00
  TRACK 02 AUDIO
    TITLE "0:"
    INDEX 01 00:02:07
  TRACK 03 AUDIO
    TITLE "3:cjc158_0169"
    INDEX 01 00:02:35
  TRACK 04 AUDIO
    TITLE "4:cjc158_0170"
    INDEX 01 00:04:22
  TRACK 05 AUDIO
    TITLE "5:cjc158_0171"
    INDEX 01 00:06:09
  TRACK 06 AUDIO
    TITLE "0:"
    INDEX 01 00:07:51
  TRACK 07 AUDIO
    TITLE "3:cjc158_0172"
    INDEX 01 00:08:06
  TRACK 08 AUDIO
    TITLE "4:cjc158_0173"
    INDEX 01 00:10:03
  TRACK 09 AUDIO
    TITLE "5:cjc158_0174"
    INDEX 01 00:12:25
  TRACK 10 AUDIO
    TITLE "0:"
    INDEX 01 00:14:32
  TRACK 11 AUDIO
    TITLE "3:cjc158_0175"
    INDEX 01 00:14:59
  TRACK 12 AUDIO
    TITLE "4:cjc158_0176"
    INDEX 01 00:16:52
  TRACK 13 AUDIO
    TITLE "5:cjc158_0177"
    INDEX 01 00:18:47
  TRACK 14 AUDIO
    TITLE "0:"
    INDEX 01 00:20:17
  TRACK 15 AUDIO
    TITLE "3:cjc158_0178"
    INDEX 01 00:20:48
  TRACK 16 AUDIO
    TITLE "4:cjc158_0179"
    INDEX 01 00:22:53
  TRACK 17 AUDIO
    TITLE "5:cjc158_0180"
    INDEX 01 00:25:12
  TRACK 18 AUDIO
    TITLE "0:"
    INDEX 01 00:27:33
  TRACK 19 AUDIO
    TITLE "3:cjc158_0181"
    INDEX 01 00:27:64
  TRACK 20 AUDIO
    TITLE "4:cjc158_0182"
    INDEX 01 00:29:61
  TRACK 21 AUDIO
    TITLE "5:cjc158_0183"
    INDEX 01 00:31:54
  TRACK 22 AUDIO
    TITLE "0:"
    INDEX 01 00:33:25
  TRACK 23 AUDIO
    TITLE "3:cjc158_0184"
    INDEX 01 00:33:55
  TRACK 24 AUDIO
    TITLE "4:cjc158_0185"
    INDEX 01 00:35:54
  TRACK 25 AUDIO
    TITLE "5:cjc158_0186"
    INDEX 01 00:38:03
  TRACK 26 AUDIO
    TITLE "0:"
    INDEX 01 00:40:02
  TRACK 27 AUDIO
    TITLE "3:cjc158_0187"
    INDEX 01 00:40:35
  TRACK 28 AUDIO
    TITLE "4:cjc158_0188"
    INDEX 01 00:42:69
  TRACK 29 AUDIO
    TITLE "5:cjc158_0189"
    INDEX 01 00:45:15
  TRACK 30 AUDIO
    TITLE "0:"
    INDEX 01 00:47:06
  TRACK 31 AUDIO
    TITLE "3:cjc158_0190"
    INDEX 01 00:47:39
  TRACK 32 AUDIO
    TITLE "4:cjc158_0191"
    INDEX 01 00:49:44
  TRACK 33 AUDIO
    TITLE "5:cjc158_0192"
    INDEX 01 00:52:01
  TRACK 34 AUDIO
    TITLE "0:"
    INDEX 01 00:54:12
  TRACK 35 AUDIO
    TITLE "3:cjc158_0193"
    INDEX 01 00:54:43
  TRACK 36 AUDIO
    TITLE "4:cjc158_0194"
    INDEX 01 00:56:52
  TRACK 37 AUDIO
    TITLE "5:cjc158_0195"
    INDEX 01 00:58:67
  TRACK 38 AUDIO
    TITLE "0:"
    INDEX 01 01:00:61
  TRACK 39 AUDIO
    TITLE "3:cjc158_0196"
    INDEX 01 01:01:10
  TRACK 40 AUDIO
    TITLE "4:cjc158_0197"
    INDEX 01 01:02:45
  TRACK 41 AUDIO
    TITLE "5:cjc158_0198"
    INDEX 01 01:04:44
  TRACK 42 AUDIO
    TITLE "0:"
    INDEX 01 01:06:35
  TRACK 43 AUDIO
    TITLE "3:cjc158_0199"
    INDEX 01 01:06:66
  TRACK 44 AUDIO
    TITLE "4:cjc158_0200"
    INDEX 01 01:09:11
  TRACK 45 AUDIO
    TITLE "5:cjc158_0201"
    INDEX 01 01:11:24
  TRACK 46 AUDIO
    TITLE "0:"
    INDEX 01 01:13:17
  TRACK 47 AUDIO
    TITLE "3:cjc158_0202"
    INDEX 01 01:13:46
  TRACK 48 AUDIO
    TITLE "4:cjc158_0203"
    INDEX 01 01:15:34
  TRACK 49 AUDIO
    TITLE "5:cjc158_0204"
    INDEX 01 01:17:38
  TRACK 50 AUDIO
    TITLE "0:"
    INDEX 01 01:19:20
  TRACK 51 AUDIO
    TITLE "3:cjc158_0205"
    INDEX 01 01:19:49
  TRACK 52 AUDIO
    TITLE "4:cjc158_0206"
    INDEX 01 01:22:14
  TRACK 53 AUDIO
    TITLE "5:cjc158_0207"
    INDEX 01 01:24:31
  TRACK 54 AUDIO
    TITLE "0:"
    INDEX 01 01:26:30
  TRACK 55 AUDIO
    TITLE "3:cjc158_0208"
    INDEX 01 01:26:57
  TRACK 56 AUDIO
    TITLE "4:cjc158_0209"
    INDEX 01 01:29:20
  TRACK 57 AUDIO
    TITLE "5:cjc158_0210"
    INDEX 01 01:31:64
  TRACK 58 AUDIO
    TITLE "0:"
    INDEX 01 01:34:23
  TRACK 59 AUDIO
    TITLE "3:cjc158_0211"
    INDEX 01 01:34:54
  TRACK 60 AUDIO
    TITLE "4:cjc158_0212"
    INDEX 01 01:37:12
  TRACK 61 AUDIO
    TITLE "5:cjc158_0213"
    INDEX 01 01:39:24
  TRACK 62 AUDIO
    TITLE "0:"
    INDEX 01 01:41:19
  TRACK 63 AUDIO
    TITLE "3:cjc158_0214"
    INDEX 01 01:41:47
  TRACK 64 AUDIO
    TITLE "4:cjc158_0215"
    INDEX 01 01:43:73
  TRACK 65 AUDIO
    TITLE "5:cjc158_0216"
    INDEX 01 01:46:66
  TRACK 66 AUDIO
    TITLE "0:"
    INDEX 01 01:49:44
  TRACK 67 AUDIO
    TITLE "3:cjc158_0217"
    INDEX 01 01:49:70
  TRACK 68 AUDIO
    TITLE "4:cjc158_0218"
    INDEX 01 01:53:05
  TRACK 69 AUDIO
    TITLE "5:cjc158_0219"
    INDEX 01 01:55:59
  TRACK 70 AUDIO
    TITLE "0:"
    INDEX 01 01:58:18
  TRACK 71 AUDIO
    TITLE "3:cjc158_0220"
    INDEX 01 01:58:43
  TRACK 72 AUDIO
    TITLE "4:cjc158_0221"
    INDEX 01 02:00:44
  TRACK 73 AUDIO
    TITLE "5:cjc158_0222"
    INDEX 01 02:02:70
  TRACK 74 AUDIO
    TITLE "0:"
    INDEX 01 02:04:75
  TRACK 75 AUDIO
    TITLE "3:cjc158_0223"
    INDEX 01 02:05:24
  TRACK 76 AUDIO
    TITLE "4:cjc158_0224"
    INDEX 01 02:08:26
  TRACK 77 AUDIO
    TITLE "5:cjc158_0225"
    INDEX 01 02:10:72
  TRACK 78 AUDIO
    TITLE "0:"
    INDEX 01 02:13:21
  TRACK 79 AUDIO
    TITLE "3:cjc158_0226"
    INDEX 01 02:13:43
  TRACK 80 AUDIO
    TITLE "4:cjc158_0227"
    INDEX 01 02:16:04
  TRACK 81 AUDIO
    TITLE "5:cjc158_0228"
    INDEX 01 02:18:60
  TRACK 82 AUDIO
    TITLE "0:"
    INDEX 01 02:21:31
